# xmcd
#
# Track frame offsets:
#	150
#	28787
#	50684
#	71725
#	100933
#	121288
#	134797
#	156651
#	177176
#	194821
#	209102
#	234880
#
# Disc length: 3345 seconds
#
# Revision: 1
# Processed by: cddbd v1.5.2PL0 Copyright (c) Steve Scherf et al.
# Submitted via: EZCDAudioConverter 1.3.4.1
#
DISCID=c10d0f0c
DTITLE=Luther Allison - Bad Love
DYEAR=1994
DGENRE=Blues
TTITLE0=Bad Love
TTITLE1=I Wanna Know
TTITLE2=She Was Born That Way
TTITLE3=Put Your Money Where Your Mouth Is
TTITLE4=Nobody But You
TTITLE5=You've Been Teasin' Me
TTITLE6=Middle Of The Road
TTITLE7=Love String
TTITLE8=Gave It All
TTITLE9=Soul Fixin' Man
TTITLE10=Freedom
TTITLE11=Things That I Used To Do
EXTD=
EXTT0=
EXTT1=
EXTT2=
EXTT3=
EXTT4=
EXTT5=
EXTT6=
EXTT7=
EXTT8=
EXTT9=
EXTT10=
EXTT11=
PLAYORDER=
